<svg width="6723" height="1751" viewBox="0 0 6723 1751" fill="none" xmlns="http://www.w3.org/2000/svg">
<path d="M40 42C40 40.8954 40.8954 40 42 40H6681C6682.1 40 6683 40.8954 6683 42V1709C6683 1710.1 6682.1 1711 6681 1711H42C40.8954 1711 40 1710.1 40 1709V42Z" fill="black"/>
<path d="M42 40V41H6681V40V39H42V40ZM6683 42H6682V1709H6683H6684V42H6683ZM6681 1711V1710H42V1711V1712H6681V1711ZM40 1709H41V42H40H39V1709H40ZM42 1711V1710C41.4477 1710 41 1709.55 41 1709H40H39C39 1710.66 40.3431 1712 42 1712V1711ZM6683 1709H6682C6682 1709.55 6681.55 1710 6681 1710V1711V1712C6682.66 1712 6684 1710.66 6684 1709H6683ZM6681 40V41C6681.55 41 6682 41.4477 6682 42H6683H6684C6684 40.3432 6682.66 39 6681 39V40ZM42 40V39C40.3432 39 39 40.3431 39 42H40H41C41 41.4477 41.4477 41 42 41V40Z" fill="white" fill-opacity="0.1"/>
<circle cx="2838.27" cy="714.242" r="48.2422" fill="white"/>
<path d="M2655.95 768.75C2722.36 768.75 2766.84 809.393 2781.88 863.584H2685.6C2677.17 856.363 2666.22 852 2654.24 852C2627.6 852 2606 873.599 2606 900.242C2606 926.886 2627.6 948.484 2654.24 948.484C2667.02 948.484 2678.64 943.514 2687.27 935.404H2654.38V876.512H2782.51V1025.62H2712.34V1009.22C2699.42 1021.58 2679.11 1029.38 2647.18 1029.38C2576.38 1029.38 2521.88 977.382 2521.88 899.066C2521.88 825.804 2578.14 768.75 2655.95 768.75Z" fill="white"/>
<rect x="2795.04" y="773.762" width="86.46" height="251.862" fill="white"/>
<path d="M3041.89 862.676L3056.3 773.762H3189.75V1025.62H3103.29V899.828L3079.48 1025.9H3004.29L2980.49 899.831V1025.62H2894.03V773.762H3027.48L3041.89 862.676Z" fill="white"/>
<path d="M2541.92 1025.62H2451.7C2451.7 1025.41 2451.7 1025.21 2451.7 1025C2451.7 998.353 2430.1 976.754 2403.46 976.754C2376.82 976.754 2355.22 998.353 2355.22 1025C2355.22 1025.21 2355.22 1025.41 2355.22 1025.62H2265L2344.23 773.762H2462.69L2541.92 1025.62Z" fill="white"/>
<path d="M3466.92 1025.62H3376.7C3376.7 1025.41 3376.7 1025.21 3376.7 1025C3376.7 998.353 3355.1 976.754 3328.46 976.754C3301.82 976.754 3280.22 998.353 3280.22 1025C3280.22 1025.21 3280.22 1025.41 3280.22 1025.62H3190L3269.23 773.762H3387.69L3466.92 1025.62Z" fill="white"/>
<path d="M1061.92 1025.62H971.699C971.702 1025.41 971.703 1025.21 971.703 1025C971.703 998.353 950.104 976.754 923.461 976.754C896.818 976.754 875.22 998.353 875.22 1025C875.22 1025.21 875.221 1025.41 875.224 1025.62H785L864.232 773.762H982.69L1061.92 1025.62Z" fill="white"/>
<circle cx="1110.24" cy="983.242" r="48.2422" fill="white"/>
<path d="M4885.92 1025.62H4795.7C4795.7 1025.41 4795.7 1025.21 4795.7 1025C4795.7 998.353 4774.1 976.754 4747.46 976.754C4720.82 976.754 4699.22 998.353 4699.22 1025C4699.22 1025.21 4699.22 1025.41 4699.22 1025.62H4609L4688.23 773.762H4806.69L4885.92 1025.62Z" fill="white"/>
<path d="M5932.92 1025.62H5842.7C5842.7 1025.41 5842.7 1025.21 5842.7 1025C5842.7 998.353 5821.1 976.754 5794.46 976.754C5767.82 976.754 5746.22 998.353 5746.22 1025C5746.22 1025.21 5746.22 1025.41 5746.22 1025.62H5656L5735.23 773.762H5853.69L5932.92 1025.62Z" fill="white"/>
<path d="M5507.86 862.676L5522.27 773.762H5655.72V1025.62H5569.26V899.828L5545.45 1025.9H5470.27L5446.46 899.831V1025.62H5360V773.762H5493.45L5507.86 862.676Z" fill="white"/>
<path d="M5074 774V840.427H4972.48V1025.92H4886V774H5074Z" fill="white"/>
<path d="M5347.22 1025.92H5260.74V877.81L5196.33 1026L5129.14 1026L5129.18 1025.92H5086.53V774.001H5173.01V925.734L5239.4 774.001L5347.22 774V1025.92Z" fill="white"/>
<rect x="43" y="43" width="37.7031" height="30" rx="3" fill="black"/>
<rect x="43.5" y="43.5" width="36.7031" height="29" rx="2.5" stroke="white" stroke-opacity="0.0980392"/>
<path d="M49.2813 61V60.1094H49.5156C49.849 60.1094 50.1081 60.0026 50.293 59.7891C50.4779 59.5755 50.6107 59.2305 50.6914 58.7539C50.7747 58.2773 50.8307 57.6458 50.8594 56.8594L51 53H55.875V61H54.9062V53.8594H51.9219L51.7969 57.0469C51.7656 57.8854 51.6888 58.599 51.5664 59.1875C51.444 59.776 51.2292 60.2253 50.9219 60.5352C50.6146 60.8451 50.1667 61 49.5781 61H49.2813ZM60.123 61.125C59.5814 61.125 59.1061 60.9961 58.6973 60.7383C58.291 60.4805 57.9733 60.1198 57.7441 59.6562C57.5176 59.1927 57.4043 58.651 57.4043 58.0312C57.4043 57.4062 57.5176 56.8607 57.7441 56.3945C57.9733 55.9284 58.291 55.5664 58.6973 55.3086C59.1061 55.0508 59.5814 54.9219 60.123 54.9219C60.6647 54.9219 61.1387 55.0508 61.5449 55.3086C61.9538 55.5664 62.2715 55.9284 62.498 56.3945C62.7272 56.8607 62.8418 57.4062 62.8418 58.0312C62.8418 58.651 62.7272 59.1927 62.498 59.6562C62.2715 60.1198 61.9538 60.4805 61.5449 60.7383C61.1387 60.9961 60.6647 61.125 60.123 61.125ZM60.123 60.2969C60.5345 60.2969 60.873 60.1914 61.1387 59.9805C61.4043 59.7695 61.6009 59.4922 61.7285 59.1484C61.8561 58.8047 61.9199 58.4323 61.9199 58.0312C61.9199 57.6302 61.8561 57.2565 61.7285 56.9102C61.6009 56.5638 61.4043 56.2839 61.1387 56.0703C60.873 55.8568 60.5345 55.75 60.123 55.75C59.7116 55.75 59.373 55.8568 59.1074 56.0703C58.8418 56.2839 58.6452 56.5638 58.5176 56.9102C58.39 57.2565 58.3262 57.6302 58.3262 58.0312C58.3262 58.4323 58.39 58.8047 58.5176 59.1484C58.6452 59.4922 58.8418 59.7695 59.1074 59.9805C59.373 60.1914 59.7116 60.2969 60.123 60.2969ZM67.9521 55V55.8594H65.1709V61H64.249V55H67.9521ZM71.4238 61.125C70.8822 61.125 70.4069 60.9961 69.998 60.7383C69.5918 60.4805 69.2741 60.1198 69.0449 59.6562C68.8184 59.1927 68.7051 58.651 68.7051 58.0312C68.7051 57.4062 68.8184 56.8607 69.0449 56.3945C69.2741 55.9284 69.5918 55.5664 69.998 55.3086C70.4069 55.0508 70.8822 54.9219 71.4238 54.9219C71.9655 54.9219 72.4395 55.0508 72.8457 55.3086C73.2546 55.5664 73.5723 55.9284 73.7988 56.3945C74.028 56.8607 74.1426 57.4062 74.1426 58.0312C74.1426 58.651 74.028 59.1927 73.7988 59.6562C73.5723 60.1198 73.2546 60.4805 72.8457 60.7383C72.4395 60.9961 71.9655 61.125 71.4238 61.125ZM71.4238 60.2969C71.8353 60.2969 72.1738 60.1914 72.4395 59.9805C72.7051 59.7695 72.9017 59.4922 73.0293 59.1484C73.1569 58.8047 73.2207 58.4323 73.2207 58.0312C73.2207 57.6302 73.1569 57.2565 73.0293 56.9102C72.9017 56.5638 72.7051 56.2839 72.4395 56.0703C72.1738 55.8568 71.8353 55.75 71.4238 55.75C71.0124 55.75 70.6738 55.8568 70.4082 56.0703C70.1426 56.2839 69.946 56.5638 69.8184 56.9102C69.6908 57.2565 69.627 57.6302 69.627 58.0312C69.627 58.4323 69.6908 58.8047 69.8184 59.1484C69.946 59.4922 70.1426 59.7695 70.4082 59.9805C70.6738 60.1914 71.0124 60.2969 71.4238 60.2969Z" fill="white"/>
</svg>
